<svg width="24" height="24" viewBox="0 0 24 24" fill="none" xmlns="http://www.w3.org/2000/svg">
<path d="M12.5 12.5C11.0562 12.5 9.82031 11.9859 8.79219 10.9578C7.76406 9.92969 7.25 8.69375 7.25 7.25C7.25 5.80625 7.76406 4.57031 8.79219 3.54219C9.82031 2.51406 11.0562 2 12.5 2C13.9437 2 15.1797 2.51406 16.2078 3.54219C17.2359 4.57031 17.75 5.80625 17.75 7.25C17.75 8.69375 17.2359 9.92969 16.2078 10.9578C15.1797 11.9859 13.9437 12.5 12.5 12.5ZM2 23V19.325C2 18.5813 2.19163 17.8979 2.57488 17.2749C2.95813 16.6519 3.4665 16.1759 4.1 15.8469C5.45625 15.1687 6.83437 14.6604 8.23437 14.3217C9.63437 13.9831 11.0562 13.8134 12.5 13.8125C13.9437 13.8116 15.3656 13.9814 16.7656 14.3217C18.1656 14.6621 19.5437 15.1705 20.9 15.8469C21.5344 16.175 22.0432 16.651 22.4264 17.2749C22.8097 17.8987 23.0009 18.5821 23 19.325V23H2Z" fill="#FEFEFE"/>
</svg>
