<svg width="19" height="19" viewBox="0 0 19 19" fill="none" xmlns="http://www.w3.org/2000/svg">
<mask id="path-1-inside-1_2028_4028" fill="white">
<path d="M0.332107 11.9866C0.794692 13.5642 1.59139 15.0744 2.79141 16.2144C3.36855 16.827 4.05427 17.33 4.77977 17.7513L4.82989 17.7577C7.26214 19.173 10.3427 19.3791 12.9659 18.3755C13.339 18.2312 13.722 18.0893 14.047 17.8489L14.0971 17.8434C14.718 17.5054 15.3107 17.1052 15.8226 16.6149C16.315 16.2231 16.7398 15.7484 17.0942 15.2295C17.4923 14.8377 17.7206 14.306 17.9971 13.8261C18.2377 13.2665 18.5491 12.7132 18.6148 12.099C18.9362 11.0838 19.0408 10.0033 18.9863 8.94145C18.8451 7.82224 18.6613 6.68509 18.1709 5.65914V5.60533C17.4056 3.89581 16.1213 2.43621 14.539 1.44215L14.4889 1.43577C12.9078 0.383516 10.9652 -0.0421687 9.08385 0.00326955C7.61256 0.0957404 6.11423 0.405039 4.83983 1.17709L4.78812 1.17988C4.0141 1.61035 3.31604 2.16438 2.67526 2.77341C1.90124 3.58253 1.1833 4.49528 0.809409 5.56149C-0.110591 7.52848 -0.217189 9.83707 0.34205 11.9228L0.332107 11.9866ZM9.1101 18.0052C8.60455 17.7334 8.11214 17.4304 7.68694 17.041C6.8795 16.1845 6.22361 15.1773 5.82626 14.0644C6.90575 13.7974 8.00991 13.6403 9.11964 13.5857C9.10532 15.0593 9.12243 16.5316 9.1097 18.0052H9.1101ZM9.11885 12.9588C7.93116 12.956 6.75262 13.1684 5.59914 13.4351C5.17832 12.2557 4.97904 11.0121 4.90387 9.76612C6.28844 9.77608 7.67302 9.76692 9.0572 9.7725L9.12163 9.81475C9.1101 10.863 9.11248 11.9117 9.11885 12.9592V12.9588ZM9.11447 5.33868C7.9769 5.28487 6.8441 5.12863 5.73716 4.85879C6.0836 4.09829 6.41652 3.31827 6.95706 2.67058C7.50994 1.91805 8.25294 1.29826 9.10771 0.918014C9.12481 2.39077 9.11129 3.86512 9.11487 5.33828L9.11447 5.33868ZM9.11885 5.96445C9.10811 7.00196 9.11805 8.03986 9.11248 9.07737C7.71637 9.06502 6.31867 9.05864 4.92256 9.08096C4.97706 7.86847 5.1103 6.64802 5.53271 5.5025C6.70887 5.76795 7.90968 5.98757 9.11885 5.96445ZM2.20552 14.4287C2.11881 14.2976 2.02733 14.1696 1.94778 14.0341C1.67929 13.5096 1.38854 12.9922 1.20398 12.4286C0.871856 11.5765 0.768838 10.6665 0.66065 9.76612C1.86783 9.76771 3.0762 9.7713 4.28417 9.76532C4.29571 10.0882 4.30645 10.411 4.33986 10.7331L4.34622 10.8012C4.45719 11.7534 4.64692 12.6981 4.97069 13.6021C4.91779 13.6156 4.81119 13.6423 4.7575 13.6559C3.89557 13.8755 3.05273 14.1609 2.20512 14.4287H2.20552ZM2.59372 14.9883C3.16927 14.8269 3.73726 14.6396 4.31002 14.4698C4.59283 14.3857 4.89154 14.3442 5.15485 14.2015C5.65443 15.4551 6.32384 16.6703 7.31265 17.6038C7.54017 17.829 7.83013 17.9841 8.04293 18.2252C7.56165 18.1076 7.07798 18.0012 6.60466 17.8557C5.02677 17.3061 3.65055 16.2746 2.59372 14.9879V14.9883ZM13.1326 14.3255C12.88 14.8743 12.6036 15.4124 12.2798 15.9226C11.6489 16.7935 10.8666 17.6142 9.84554 18.0112C9.84554 16.536 9.84395 15.0605 9.84912 13.5853C10.9811 13.6579 12.1159 13.7699 13.2177 14.0561C13.1918 14.1465 13.1632 14.2362 13.1326 14.3251V14.3255ZM13.4002 13.4518C13.0136 13.2832 12.5876 13.2537 12.1776 13.1808C11.4465 13.0911 10.719 12.9576 9.97958 12.9476C9.93583 12.9448 9.84793 12.9396 9.80417 12.9368C9.88094 11.883 9.82366 10.8204 9.83281 9.76373C11.254 9.76732 12.6759 9.7717 14.0971 9.76213C14.0355 10.92 13.8752 12.0767 13.5315 13.1863C13.4893 13.2752 13.4456 13.3637 13.3999 13.4518H13.4002ZM14.1019 9.0694C12.6799 9.07458 11.2576 9.06741 9.8356 9.07378C9.84276 8.04066 9.84992 7.00674 9.83281 5.97282C11.0428 5.92101 12.2571 5.76636 13.4269 5.44351C13.5824 5.95927 13.7284 6.47743 13.8342 7.00594C13.9782 7.68752 13.9651 8.38902 14.1019 9.0694ZM9.83281 5.3315C9.83122 3.86791 9.86781 2.40353 9.82048 0.94153C10.3789 1.06549 10.8129 1.46965 11.2397 1.82758C12.1123 2.67775 12.7682 3.73319 13.228 4.85879C12.106 5.07123 10.9791 5.30799 9.83241 5.3315H9.83281ZM14.2757 16.9745C13.6636 17.3188 13.0478 17.6724 12.374 17.882C11.8872 18.0478 11.3769 18.1224 10.8857 18.2695C11.1605 18.0347 11.4684 17.8406 11.7297 17.5899C12.7062 16.658 13.3987 15.4599 13.8632 14.1999C14.7423 14.4331 15.6229 14.6707 16.4792 14.9768C15.8285 15.7285 15.1046 16.4216 14.2761 16.9749L14.2757 16.9745ZM16.9164 14.406C15.9757 14.0887 15.0207 13.8197 14.0661 13.5479C14.5422 12.3453 14.6253 11.0352 14.7311 9.75895C15.6225 9.77688 16.5131 9.76253 17.4044 9.76971C17.6988 9.76692 17.9979 9.78485 18.2886 9.72666L18.293 9.82551C18.291 10.8327 18.0774 11.8379 17.7338 12.783C17.5138 13.3498 17.194 13.8679 16.9168 14.406H16.9164ZM17.1992 5.15214C17.8435 6.36104 18.1928 7.70545 18.3125 9.06581C17.1248 9.09371 15.9327 9.02795 14.749 9.10089C14.7295 8.95102 14.7112 8.80235 14.6917 8.65448C14.6102 7.75328 14.535 6.84013 14.257 5.97282C14.1962 5.74045 14.1273 5.51007 14.0752 5.27491C14.9746 5.0246 15.8671 4.75037 16.7449 4.4327C16.8997 4.67026 17.0616 4.90343 17.1996 5.15214H17.1992ZM16.3428 3.86154C15.5187 4.14413 14.6906 4.41477 13.8505 4.64794C13.2507 3.17 12.3526 1.77895 11.067 0.810397C12.2476 1.03918 13.401 1.46407 14.3827 2.17155C15.1229 2.62713 15.7259 3.25769 16.3428 3.86114V3.86154ZM6.04104 1.33971C6.58875 1.12009 7.15435 0.943523 7.73586 0.839493L7.85758 0.834312C6.56448 1.80007 5.61227 3.1963 5.09121 4.71928C4.6859 4.59931 4.27701 4.4897 3.87051 4.37132C3.42503 4.20471 2.96642 4.07199 2.51378 3.9285C2.81527 3.57256 3.14938 3.24613 3.49742 2.93643C4.23207 2.24489 5.1278 1.75464 6.04104 1.34011V1.33971ZM2.07307 4.56025C2.10886 4.54749 2.18046 4.52238 2.21546 4.51003C3.08614 4.83288 3.97512 5.10352 4.87165 5.34147C4.4914 6.54518 4.29372 7.81028 4.32037 9.07378C3.09967 9.06501 1.87896 9.07219 0.657468 9.07099C0.730654 8.27742 0.843616 7.48823 1.06357 6.72056C1.31972 5.96724 1.64628 5.23266 2.07307 4.56025Z"/>
</mask>
<path d="M0.332107 11.9866C0.794692 13.5642 1.59139 15.0744 2.79141 16.2144C3.36855 16.827 4.05427 17.33 4.77977 17.7513L4.82989 17.7577C7.26214 19.173 10.3427 19.3791 12.9659 18.3755C13.339 18.2312 13.722 18.0893 14.047 17.8489L14.0971 17.8434C14.718 17.5054 15.3107 17.1052 15.8226 16.6149C16.315 16.2231 16.7398 15.7484 17.0942 15.2295C17.4923 14.8377 17.7206 14.306 17.9971 13.8261C18.2377 13.2665 18.5491 12.7132 18.6148 12.099C18.9362 11.0838 19.0408 10.0033 18.9863 8.94145C18.8451 7.82224 18.6613 6.68509 18.1709 5.65914V5.60533C17.4056 3.89581 16.1213 2.43621 14.539 1.44215L14.4889 1.43577C12.9078 0.383516 10.9652 -0.0421687 9.08385 0.00326955C7.61256 0.0957404 6.11423 0.405039 4.83983 1.17709L4.78812 1.17988C4.0141 1.61035 3.31604 2.16438 2.67526 2.77341C1.90124 3.58253 1.1833 4.49528 0.809409 5.56149C-0.110591 7.52848 -0.217189 9.83707 0.34205 11.9228L0.332107 11.9866ZM9.1101 18.0052C8.60455 17.7334 8.11214 17.4304 7.68694 17.041C6.8795 16.1845 6.22361 15.1773 5.82626 14.0644C6.90575 13.7974 8.00991 13.6403 9.11964 13.5857C9.10532 15.0593 9.12243 16.5316 9.1097 18.0052H9.1101ZM9.11885 12.9588C7.93116 12.956 6.75262 13.1684 5.59914 13.4351C5.17832 12.2557 4.97904 11.0121 4.90387 9.76612C6.28844 9.77608 7.67302 9.76692 9.0572 9.7725L9.12163 9.81475C9.1101 10.863 9.11248 11.9117 9.11885 12.9592V12.9588ZM9.11447 5.33868C7.9769 5.28487 6.8441 5.12863 5.73716 4.85879C6.0836 4.09829 6.41652 3.31827 6.95706 2.67058C7.50994 1.91805 8.25294 1.29826 9.10771 0.918014C9.12481 2.39077 9.11129 3.86512 9.11487 5.33828L9.11447 5.33868ZM9.11885 5.96445C9.10811 7.00196 9.11805 8.03986 9.11248 9.07737C7.71637 9.06502 6.31867 9.05864 4.92256 9.08096C4.97706 7.86847 5.1103 6.64802 5.53271 5.5025C6.70887 5.76795 7.90968 5.98757 9.11885 5.96445ZM2.20552 14.4287C2.11881 14.2976 2.02733 14.1696 1.94778 14.0341C1.67929 13.5096 1.38854 12.9922 1.20398 12.4286C0.871856 11.5765 0.768838 10.6665 0.66065 9.76612C1.86783 9.76771 3.0762 9.7713 4.28417 9.76532C4.29571 10.0882 4.30645 10.411 4.33986 10.7331L4.34622 10.8012C4.45719 11.7534 4.64692 12.6981 4.97069 13.6021C4.91779 13.6156 4.81119 13.6423 4.7575 13.6559C3.89557 13.8755 3.05273 14.1609 2.20512 14.4287H2.20552ZM2.59372 14.9883C3.16927 14.8269 3.73726 14.6396 4.31002 14.4698C4.59283 14.3857 4.89154 14.3442 5.15485 14.2015C5.65443 15.4551 6.32384 16.6703 7.31265 17.6038C7.54017 17.829 7.83013 17.9841 8.04293 18.2252C7.56165 18.1076 7.07798 18.0012 6.60466 17.8557C5.02677 17.3061 3.65055 16.2746 2.59372 14.9879V14.9883ZM13.1326 14.3255C12.88 14.8743 12.6036 15.4124 12.2798 15.9226C11.6489 16.7935 10.8666 17.6142 9.84554 18.0112C9.84554 16.536 9.84395 15.0605 9.84912 13.5853C10.9811 13.6579 12.1159 13.7699 13.2177 14.0561C13.1918 14.1465 13.1632 14.2362 13.1326 14.3251V14.3255ZM13.4002 13.4518C13.0136 13.2832 12.5876 13.2537 12.1776 13.1808C11.4465 13.0911 10.719 12.9576 9.97958 12.9476C9.93583 12.9448 9.84793 12.9396 9.80417 12.9368C9.88094 11.883 9.82366 10.8204 9.83281 9.76373C11.254 9.76732 12.6759 9.7717 14.0971 9.76213C14.0355 10.92 13.8752 12.0767 13.5315 13.1863C13.4893 13.2752 13.4456 13.3637 13.3999 13.4518H13.4002ZM14.1019 9.0694C12.6799 9.07458 11.2576 9.06741 9.8356 9.07378C9.84276 8.04066 9.84992 7.00674 9.83281 5.97282C11.0428 5.92101 12.2571 5.76636 13.4269 5.44351C13.5824 5.95927 13.7284 6.47743 13.8342 7.00594C13.9782 7.68752 13.9651 8.38902 14.1019 9.0694ZM9.83281 5.3315C9.83122 3.86791 9.86781 2.40353 9.82048 0.94153C10.3789 1.06549 10.8129 1.46965 11.2397 1.82758C12.1123 2.67775 12.7682 3.73319 13.228 4.85879C12.106 5.07123 10.9791 5.30799 9.83241 5.3315H9.83281ZM14.2757 16.9745C13.6636 17.3188 13.0478 17.6724 12.374 17.882C11.8872 18.0478 11.3769 18.1224 10.8857 18.2695C11.1605 18.0347 11.4684 17.8406 11.7297 17.5899C12.7062 16.658 13.3987 15.4599 13.8632 14.1999C14.7423 14.4331 15.6229 14.6707 16.4792 14.9768C15.8285 15.7285 15.1046 16.4216 14.2761 16.9749L14.2757 16.9745ZM16.9164 14.406C15.9757 14.0887 15.0207 13.8197 14.0661 13.5479C14.5422 12.3453 14.6253 11.0352 14.7311 9.75895C15.6225 9.77688 16.5131 9.76253 17.4044 9.76971C17.6988 9.76692 17.9979 9.78485 18.2886 9.72666L18.293 9.82551C18.291 10.8327 18.0774 11.8379 17.7338 12.783C17.5138 13.3498 17.194 13.8679 16.9168 14.406H16.9164ZM17.1992 5.15214C17.8435 6.36104 18.1928 7.70545 18.3125 9.06581C17.1248 9.09371 15.9327 9.02795 14.749 9.10089C14.7295 8.95102 14.7112 8.80235 14.6917 8.65448C14.6102 7.75328 14.535 6.84013 14.257 5.97282C14.1962 5.74045 14.1273 5.51007 14.0752 5.27491C14.9746 5.0246 15.8671 4.75037 16.7449 4.4327C16.8997 4.67026 17.0616 4.90343 17.1996 5.15214H17.1992ZM16.3428 3.86154C15.5187 4.14413 14.6906 4.41477 13.8505 4.64794C13.2507 3.17 12.3526 1.77895 11.067 0.810397C12.2476 1.03918 13.401 1.46407 14.3827 2.17155C15.1229 2.62713 15.7259 3.25769 16.3428 3.86114V3.86154ZM6.04104 1.33971C6.58875 1.12009 7.15435 0.943523 7.73586 0.839493L7.85758 0.834312C6.56448 1.80007 5.61227 3.1963 5.09121 4.71928C4.6859 4.59931 4.27701 4.4897 3.87051 4.37132C3.42503 4.20471 2.96642 4.07199 2.51378 3.9285C2.81527 3.57256 3.14938 3.24613 3.49742 2.93643C4.23207 2.24489 5.1278 1.75464 6.04104 1.34011V1.33971ZM2.07307 4.56025C2.10886 4.54749 2.18046 4.52238 2.21546 4.51003C3.08614 4.83288 3.97512 5.10352 4.87165 5.34147C4.4914 6.54518 4.29372 7.81028 4.32037 9.07378C3.09967 9.06501 1.87896 9.07219 0.657468 9.07099C0.730654 8.27742 0.843616 7.48823 1.06357 6.72056C1.31972 5.96724 1.64628 5.23266 2.07307 4.56025Z" fill="#F7F7F7" stroke="#F7F7F7" stroke-width="6" mask="url(#path-1-inside-1_2028_4028)"/>
</svg>
