<svg width="24" height="24" viewBox="0 0 24 24" fill="none" xmlns="http://www.w3.org/2000/svg">
<path d="M10.3423 2.0558C11.4101 2.31317 12.0655 3.3879 11.806 4.45623C11.5466 5.52457 10.4707 6.182 9.4028 5.92463C8.33494 5.66725 7.67959 4.59253 7.93903 3.52419C8.19847 2.45585 9.27445 1.79843 10.3423 2.0558Z" fill="#F7F7F7"/>
<path d="M11.3379 12.4935C11.3379 12.5124 11.3532 12.5277 11.3722 12.5277C11.4535 12.5277 12.5225 12.5288 14.5792 12.5308C15.0864 12.5312 15.2435 12.8454 15.4699 13.3032C15.4869 13.3375 16.2097 14.7413 17.6382 17.5147C17.6454 17.5287 17.6627 17.5343 17.6767 17.5271C17.6768 17.5271 17.6769 17.527 17.6769 17.527C17.8574 17.4338 18.1965 17.2352 18.4298 17.2462C18.8758 17.2682 19.0224 17.5389 19.1867 17.94C19.3223 18.2713 19.1721 18.6725 18.8406 18.8271C17.9286 19.253 17.4477 19.4758 17.3978 19.4954C17.2501 19.554 17.1094 19.5679 16.9756 19.5372C16.6265 19.4568 16.5322 19.2467 16.3587 18.9154C14.9578 16.2326 14.1801 14.7463 14.0257 14.4566C14.0189 14.4441 14.0059 14.4363 13.9918 14.4364C12.5069 14.4364 10.8836 14.4356 9.12191 14.4342C8.61163 14.4337 8.27791 14.0783 8.27437 13.5761C8.27378 13.4525 8.27378 11.7155 8.27437 8.3651C8.27437 7.99164 8.2939 7.74296 8.33291 7.61903C8.67765 6.52544 10.0368 6.11679 10.8768 6.93272C11.1988 7.24557 11.3564 7.64553 11.3497 8.13265C11.3438 8.55269 11.3413 9.02677 11.3422 9.5549C11.3422 9.56533 11.3507 9.57379 11.3611 9.57379C11.775 9.57583 12.5952 9.58329 13.8218 9.59621C14.5483 9.60412 14.9076 10.4877 14.359 10.9877C14.2034 11.1295 14.013 11.1997 13.7879 11.1982C13.0905 11.1932 12.2828 11.1913 11.3646 11.1925C11.35 11.1925 11.3382 11.2043 11.3382 11.2188L11.3378 12.4935H11.3379Z" fill="#F7F7F7"/>
<path d="M14.1654 16.1155C14.1657 16.1075 14.1723 16.1012 14.1803 16.1014C14.1832 16.1015 14.186 16.1024 14.1883 16.1041C14.1985 16.1111 14.2075 16.1218 14.2151 16.1361C14.6344 16.9307 15.0121 17.6497 15.3483 18.2931C15.3552 18.3062 15.3559 18.3219 15.35 18.3357C14.6332 20.0506 13.2031 21.3145 11.4019 21.7975C9.22597 22.3812 6.91305 21.6806 5.42938 19.9873C3.52185 17.8119 3.52801 14.4125 5.42103 12.2243C6.04006 11.5091 6.79054 10.9725 7.67247 10.6145C7.67915 10.6116 7.68691 10.6146 7.68984 10.6213C7.69058 10.623 7.69095 10.6249 7.69095 10.6268V12.4388C7.69095 12.4533 7.68364 12.4666 7.67162 12.4739C6.10143 13.4452 5.34026 15.2194 5.74301 17.0393C6.30564 19.5874 9.05648 20.9841 11.4599 20.0247C13.0696 19.3822 14.1062 17.8418 14.1655 16.1155H14.1654Z" fill="#F7F7F7"/>
</svg>
