<svg width="24" height="24" viewBox="0 0 24 24" fill="none" xmlns="http://www.w3.org/2000/svg">
<path d="M20 19.5258C20 19.5257 20 19.5257 19.9999 19.5257L14.6019 13.1256C14.5935 13.1156 14.5943 13.1012 14.6037 13.092C16.0426 11.6939 16.8295 9.67531 16.4839 7.49667C16.043 4.71602 13.7733 2.5219 10.8807 2.08339C6.28357 1.38649 2.35752 5.16008 3.08796 9.57632C3.5436 12.3313 5.79673 14.4996 8.66408 14.9427C10.0645 15.1591 11.4029 14.96 12.5674 14.4543C12.5783 14.4496 12.591 14.4524 12.5985 14.4614C12.5985 14.4614 18.1359 21.0087 18.1471 21C18.1471 21 20.0085 19.537 20 19.5258C20 19.5258 20 19.5258 20 19.5258ZM4.794 8.35287C4.79401 8.35288 4.79403 8.35288 4.79403 8.35286C4.88127 5.83764 6.9955 3.80691 9.61414 3.72314C12.5334 3.62978 14.8681 5.87227 14.7709 8.67621C14.6836 11.1915 12.5695 13.2222 9.95074 13.306C7.03146 13.3993 4.69678 11.1569 4.79396 8.35289C4.79396 8.35287 4.79398 8.35286 4.794 8.35287Z" fill="#F7F7F7"/>
</svg>
