<svg width="165" height="29" viewBox="0 0 165 29" fill="none" xmlns="http://www.w3.org/2000/svg">
<path d="M30.7754 15.0682C30.7754 9.73611 34.8576 6.07031 40.1026 6.07031C41.6612 6.07031 43.7892 6.42074 45.3716 7.19032V10.6809C44.062 9.80826 42.1557 9.38568 40.5733 9.38568C36.8117 9.38568 34.2403 11.7047 34.2403 15.1163C34.2403 18.5278 36.7401 20.8228 40.4266 20.8228C41.3679 20.8228 42.2341 20.6751 43.073 20.2731V16.81H39.6593V13.8451H46.3401V22.417C44.8805 23.4373 42.2341 24.1107 40.0071 24.1107C34.6632 24.1107 30.7788 20.2972 30.7788 15.0647L30.7754 15.0682Z" fill="#F7F7F7"/>
<path d="M49.5801 10.9805H52.7483V13.6225C53.5395 11.7295 55.1219 10.6816 57.3488 10.6816L57.5227 10.7057V13.997C57.226 13.9489 56.9055 13.8974 56.5815 13.8974C54.4057 13.8974 52.9461 15.7182 52.9461 18.3843V23.816H49.5801V10.9805Z" fill="#F7F7F7"/>
<path d="M59.2041 17.5597C59.2041 13.7703 61.7755 10.6816 65.4143 10.6816C69.0531 10.6816 71.2767 13.3236 71.2767 17.7109C71.2767 17.9342 71.2767 18.185 71.2528 18.4083H62.2734C62.3962 20.0265 63.8558 21.2496 66.0827 21.2496C67.689 21.2496 69.2236 20.6758 70.4377 19.7551V22.696C69.0531 23.6683 67.4673 24.1149 65.9122 24.1149C61.8539 24.1149 59.2075 21.2736 59.2075 17.5597H59.2041ZM68.1596 16.1408C67.9107 14.5227 66.8501 13.3511 65.2915 13.3511C63.733 13.3511 62.594 14.4986 62.3211 16.1408H68.1596Z" fill="#F7F7F7"/>
<path d="M73.749 17.5597C73.749 13.7703 76.3204 10.6816 79.9592 10.6816C83.598 10.6816 85.8216 13.3236 85.8216 17.7109C85.8216 17.9342 85.8216 18.185 85.7977 18.4083H76.8183C76.9411 20.0265 78.4007 21.2496 80.6277 21.2496C82.2339 21.2496 83.7686 20.6758 84.9826 19.7551V22.696C83.598 23.6683 82.0122 24.1149 80.4571 24.1149C76.3988 24.1149 73.7524 21.2736 73.7524 17.5597H73.749ZM82.7045 16.1408C82.4556 14.5227 81.395 13.3511 79.8365 13.3511C78.2779 13.3511 77.1389 14.4986 76.8661 16.1408H82.7045Z" fill="#F7F7F7"/>
<path d="M94.5311 13.65C93.0237 13.65 91.9324 14.9452 91.9324 16.9138V23.816H88.5664V10.9805H91.8335V13.224C92.6008 11.6539 94.0366 10.6816 95.9395 10.6816C98.6849 10.6816 100.492 12.6743 100.492 16.0652V23.816H97.1263V16.9138C97.1263 14.8456 96.1612 13.65 94.5277 13.65H94.5311Z" fill="#F7F7F7"/>
<path d="M102.051 6.36914H105.713L109.151 18.9538L112.763 6.36914H116.671L120.282 18.9297L123.747 6.36914H127.383L122.09 23.8152H118.676L114.717 10.9041L110.757 23.8152H107.32L102.051 6.36914Z" fill="#F7F7F7"/>
<path d="M129.562 6.07031H133.027V8.98715H129.562V6.07031ZM129.614 10.9798H132.98V23.8152H129.614V10.9798Z" fill="#F7F7F7"/>
<path d="M142.355 13.6188C140.848 13.6188 139.757 14.914 139.757 16.8826V23.7847H136.391V10.9493H139.658V13.1927C140.425 11.6227 141.861 10.6504 143.764 10.6504C146.509 10.6504 148.317 12.643 148.317 16.034V23.7847H144.951V16.8826C144.951 14.8144 143.985 13.6188 142.352 13.6188H142.355Z" fill="#F7F7F7"/>
<path d="M152.446 27.6531L152.422 24.537C153.759 25.4577 155.143 26.0555 156.924 26.0555C159 26.0555 160.832 24.9355 160.832 22.5649V21.6167C159.918 22.6371 158.629 23.1627 157.22 23.1627C153.929 23.1627 151.334 20.4211 151.334 16.958C151.334 13.4949 153.806 10.6777 157.05 10.6777C158.584 10.6777 159.921 11.3992 160.883 12.5708V10.9766H164V22.4413C164 26.4025 161.203 28.9964 157.22 28.9964C155.266 28.9964 153.609 28.4467 152.446 27.6497V27.6531ZM157.79 20.2768C159.546 20.2768 161.006 19.0057 161.006 16.9134C161.006 14.8211 159.546 13.5224 157.79 13.5224C156.033 13.5224 154.622 15.0169 154.622 16.9134C154.622 18.8098 155.958 20.2768 157.79 20.2768Z" fill="#F7F7F7"/>
<path d="M13.3317 0C6.52132 0 1 5.56226 1 12.4232C1 19.2841 6.02 24.3241 12.3939 24.8086C12.9771 23.4515 13.3693 22.0875 13.5125 20.6068C13.5125 20.5828 13.5364 20.4075 13.4886 20.2942C13.3386 19.9403 12.9634 19.8681 12.6019 19.9918L11.0434 20.5209C10.7569 20.6171 10.5319 20.2701 10.7331 20.0434L13.0112 17.8274C13.1067 17.7346 13.151 17.6006 13.1271 17.4667C12.9839 16.6181 12.8338 15.1167 12.7656 14.3643C12.7418 14.1238 12.5167 13.9555 12.2814 14.0036L8.11053 15.151C7.81042 15.2129 7.62627 14.8247 7.8684 14.6323C7.8684 14.6323 11.5106 11.7876 12.5303 10.9905C12.6258 10.9149 12.6838 10.8016 12.6872 10.6813C12.7793 6.70631 13.3079 4.22924 13.9422 4.22924H13.949C14.5833 4.22924 15.1119 6.70631 15.204 10.6813C15.204 10.8016 15.2654 10.9184 15.3609 10.9905C16.3806 11.791 20.0228 14.6323 20.0228 14.6323C20.2649 14.8247 20.0808 15.2163 19.7807 15.151L15.6098 14.0036C15.3745 13.952 15.146 14.1204 15.1256 14.3643C15.054 15.1167 14.9073 16.6181 14.7641 17.4667C14.7402 17.6006 14.7845 17.7346 14.88 17.8274L17.1581 20.0434C17.3593 20.2701 17.1343 20.6171 16.8478 20.5209L15.2893 19.9918C15.013 19.8991 14.6174 20.0605 14.5356 20.4453C14.5288 20.4728 14.5322 20.4866 14.5288 20.514C14.4606 21.5859 14.4503 22.2421 14.3173 23.3587C14.2457 23.9668 14.1843 24.4512 14.1332 24.8463H25.6771V12.4232C25.6635 5.56226 20.1422 0 13.3317 0Z" fill="#F7F7F7"/>
</svg>
